<svg xmlns="http://www.w3.org/2000/svg" viewBox="0 0 1200 630" role="img">
  <title>Prabh Saini &#x2014; Engineer, Photographer, and Daydreamer social preview placeholder</title>
  <desc>A dark editorial card with precise grid lines, portfolio text, and a geometric camera-lens motif. Replace this SVG with a final PNG or JPEG before launch.</desc>
  <defs>
    <linearGradient id="signal" x1="696" y1="92" x2="1102" y2="536" gradientUnits="userSpaceOnUse">
      <stop stop-color="#79E6D0"/>
      <stop offset=".54" stop-color="#D8D5CD"/>
      <stop offset="1" stop-color="#F2A65A"/>
    </linearGradient>
    <radialGradient id="glow" cx="0" cy="0" r="1" gradientTransform="translate(935 307) rotate(90) scale(312)">
      <stop stop-color="#253039"/>
      <stop offset="1" stop-color="#0B0D10" stop-opacity="0"/>
    </radialGradient>
    <pattern id="grid" width="48" height="48" patternUnits="userSpaceOnUse">
      <path d="M48 0H0v48" fill="none" stroke="#A4ABB5" stroke-opacity=".09"/>
      <circle cx="0" cy="0" r="1.5" fill="#79E6D0" fill-opacity=".18"/>
    </pattern>
    <clipPath id="frame">
      <rect x="22" y="22" width="1156" height="586" rx="28"/>
    </clipPath>
  </defs>

  <rect width="1200" height="630" fill="#0B0D10"/>
  <g clip-path="url(#frame)">
    <rect x="22" y="22" width="1156" height="586" rx="28" fill="#101419"/>
    <rect x="22" y="22" width="1156" height="586" fill="url(#glow)"/>
    <rect x="22" y="22" width="1156" height="586" fill="url(#grid)"/>
    <path d="M684 22 386 608H22V397L219 22h465Z" fill="#15191F" fill-opacity=".78"/>
    <path d="m397 22-302 586" stroke="#79E6D0" stroke-opacity=".22" stroke-width="2"/>
  </g>

  <rect x="22" y="22" width="1156" height="586" rx="28" fill="none" stroke="#343B45" stroke-width="2"/>
  <path d="M72 90h96" stroke="#79E6D0" stroke-width="5" stroke-linecap="round"/>
  <circle cx="181" cy="90" r="5" fill="#F2A65A"/>

  <g font-family="Inter, ui-sans-serif, system-ui, -apple-system, BlinkMacSystemFont, Segoe UI, sans-serif">
    <text x="72" y="128" fill="#A4ABB5" font-size="18" font-weight="650" letter-spacing="4">PORTFOLIO / SOCIAL PREVIEW</text>
    <text x="72" y="254" fill="#F3F0E8" font-size="100" font-weight="760" letter-spacing="-5">Prabh</text>
    <text x="72" y="352" fill="#F3F0E8" font-size="100" font-weight="760" letter-spacing="-5">Saini</text>
    <text x="78" y="414" fill="#79E6D0" font-size="20" font-weight="650" letter-spacing="2">ENGINEER, PHOTOGRAPHER, &amp; DAYDREAMER.</text>
    <text x="78" y="460" fill="#A4ABB5" font-size="23" font-weight="500" letter-spacing="1.5">MELBOURNE, AUSTRALIA</text>
  </g>

  <g transform="translate(928 308)">
    <path d="M-220 0h57m326 0h57M0-220v57m0 326v57" fill="none" stroke="#F3F0E8" stroke-width="8" stroke-linecap="round"/>
    <path d="M-220 0h57m326 0h57M0-220v57m0 326v57" fill="none" stroke="url(#signal)" stroke-width="4" stroke-linecap="round"/>
    <g fill="#F3F0E8">
      <circle cx="-220" r="8"/>
      <circle cx="220" r="8"/>
      <circle cy="-220" r="8"/>
      <circle cy="220" r="8"/>
    </g>
    <circle r="162" fill="#101419" stroke="#0B0D10" stroke-width="22"/>
    <circle r="150" fill="#15191F" stroke="url(#signal)" stroke-width="6"/>
    <path d="M0-112 97-56v112L0 112-97 56V-56L0-112Z" fill="none" stroke="#F3F0E8" stroke-width="8" stroke-linejoin="round"/>
    <circle r="58" fill="#0B0D10" stroke="url(#signal)" stroke-width="8"/>
    <circle cx="-20" cy="-20" r="13" fill="#F3F0E8"/>
    <circle cx="-24" cy="-24" r="5" fill="#79E6D0"/>
  </g>

  <g font-family="ui-monospace, SFMono-Regular, Menlo, Consolas, monospace">
    <rect x="72" y="530" width="356" height="42" rx="21" fill="#F2A65A" fill-opacity=".12" stroke="#F2A65A" stroke-opacity=".75"/>
    <text x="250" y="557" fill="#F2A65A" font-size="15" font-weight="700" text-anchor="middle" letter-spacing="1.2">PLACEHOLDER &#x2014; REPLACE BEFORE LAUNCH</text>
  </g>
</svg>
