<svg xmlns="http://www.w3.org/2000/svg" width="1800" height="900" viewBox="0 0 1800 900" role="img" aria-labelledby="title description">
  <title id="title">Blueprint to reality panoramic placeholder</title>
  <desc id="description">A wide neutral placeholder blending surveyed horizon lines into a softly layered landscape at dusk.</desc>
  <defs>
    <linearGradient id="sky" x1="0" y1="0" x2="1" y2="0">
      <stop offset="0" stop-color="#0d202a"/>
      <stop offset="0.48" stop-color="#31586a"/>
      <stop offset="0.7" stop-color="#8d9a95"/>
      <stop offset="1" stop-color="#e1d5c3"/>
    </linearGradient>
    <linearGradient id="ground" x1="0" y1="0" x2="0" y2="1">
      <stop offset="0" stop-color="#84918b"/>
      <stop offset="1" stop-color="#192a31"/>
    </linearGradient>
    <linearGradient id="light" x1="0" y1="0" x2="1" y2="0">
      <stop offset="0" stop-color="#d6f1ed" stop-opacity="0"/>
      <stop offset="0.48" stop-color="#f2f5e8" stop-opacity="0.34"/>
      <stop offset="1" stop-color="#ffdfb5" stop-opacity="0"/>
    </linearGradient>
    <pattern id="grid" width="72" height="72" patternUnits="userSpaceOnUse">
      <path d="M72 0H0V72" fill="none" stroke="#a4dfe7" stroke-opacity="0.14"/>
    </pattern>
  </defs>
  <rect width="1800" height="900" fill="url(#sky)"/>
  <rect width="980" height="900" fill="url(#grid)"/>
  <path d="M0 621 176 548l178 43 184-126 188 97 180-55 186 74 196-131 184 82 208-91v459H0Z" fill="url(#ground)" fill-opacity="0.92"/>
  <g fill="none" stroke="#bcebf0" stroke-width="3" stroke-opacity="0.63">
    <path d="M56 621 176 548l178 43 184-126 188 97 180-55"/>
    <path d="M56 650 176 577l178 43 184-126 188 97 180-55" stroke-opacity="0.28"/>
    <path d="M78 279h760M78 305h760M228 212v498M486 212v498M744 212v498" stroke-width="1" stroke-dasharray="8 13"/>
    <circle cx="538" cy="465" r="110"/>
    <path d="M538 332v266M405 465h266"/>
  </g>
  <g opacity="0.86">
    <path d="m906 581 186-74 196 74 196-131 184 82 132-58v426H906Z" fill="#263b41"/>
    <path d="m1092 507 196 74 196-131 184 82 132-58v141l-170 42-162-77-186 91-185-62-191 59Z" fill="#6f817c"/>
    <path d="m1288 581 196-131 184 82 132-58v76l-138 38-168-63-174 111Z" fill="#c3bfb2" fill-opacity="0.72"/>
  </g>
  <rect x="690" width="520" height="900" fill="url(#light)"/>
  <path d="M900 78v744" stroke="#f1faf6" stroke-opacity="0.61" stroke-dasharray="5 18"/>
  <g fill="#eff9f6" font-family="Arial, sans-serif" letter-spacing="5">
    <text x="78" y="94" font-size="22">SURVEY / HORIZON</text>
    <text x="78" y="820" font-size="17" fill-opacity="0.72">2:1 PLACEHOLDER &#8212; REPLACE BEFORE LAUNCH</text>
  </g>
</svg>
