<svg xmlns="http://www.w3.org/2000/svg" width="1600" height="900" viewBox="0 0 1600 900" role="img" aria-labelledby="title description">
  <title id="title">Blueprint to reality wide placeholder</title>
  <desc id="description">A cinematic neutral placeholder where precise vehicle-like linework transitions into sculpted metallic forms and warm light.</desc>
  <defs>
    <linearGradient id="background" x1="0" y1="0" x2="1" y2="0">
      <stop offset="0" stop-color="#0c1b24"/>
      <stop offset="0.48" stop-color="#234a5a"/>
      <stop offset="0.67" stop-color="#7f8d8a"/>
      <stop offset="1" stop-color="#d9d1c5"/>
    </linearGradient>
    <linearGradient id="surface" x1="0" y1="0" x2="1" y2="1">
      <stop offset="0" stop-color="#f0e9df"/>
      <stop offset="0.42" stop-color="#abb2ad"/>
      <stop offset="0.72" stop-color="#5b7072"/>
      <stop offset="1" stop-color="#263b44"/>
    </linearGradient>
    <pattern id="grid" width="50" height="50" patternUnits="userSpaceOnUse">
      <path d="M50 0H0V50" fill="none" stroke="#9edce7" stroke-opacity="0.16"/>
      <path d="M10 0V50M20 0V50M30 0V50M40 0V50M0 10H50M0 20H50M0 30H50M0 40H50" fill="none" stroke="#9edce7" stroke-opacity="0.045"/>
    </pattern>
    <filter id="shadow" x="-20%" y="-30%" width="150%" height="180%">
      <feGaussianBlur in="SourceAlpha" stdDeviation="22"/>
      <feOffset dy="28"/>
      <feColorMatrix values="0 0 0 0 0.02 0 0 0 0 0.05 0 0 0 0 0.07 0 0 0 .38 0"/>
      <feMerge><feMergeNode/><feMergeNode in="SourceGraphic"/></feMerge>
    </filter>
  </defs>
  <rect width="1600" height="900" fill="url(#background)"/>
  <rect width="900" height="900" fill="url(#grid)"/>
  <g fill="none" stroke="#b8edf2" stroke-width="3" stroke-opacity="0.68">
    <path d="M92 592c76-127 202-206 379-236 172-30 342 10 482 117l102 96-37 98H151Z"/>
    <path d="M252 493c101-86 213-128 337-127 128 1 238 46 330 135"/>
    <circle cx="332" cy="636" r="91"/>
    <circle cx="332" cy="636" r="48" stroke-dasharray="9 11"/>
    <circle cx="836" cy="636" r="91"/>
    <circle cx="836" cy="636" r="48" stroke-dasharray="9 11"/>
    <path d="M92 592h963M471 356v311M151 706h867" stroke-width="1" stroke-dasharray="8 13"/>
  </g>
  <g filter="url(#shadow)">
    <path d="M770 610c83-132 212-214 387-240 147-22 279 9 397 93l46 54v160H820Z" fill="url(#surface)"/>
    <path d="M942 478c86-75 179-110 280-106 100 4 190 44 270 120Z" fill="#e9e2d7" fill-opacity="0.66"/>
    <circle cx="1023" cy="661" r="94" fill="#263941"/>
    <circle cx="1023" cy="661" r="49" fill="#aab2ad"/>
    <circle cx="1450" cy="661" r="94" fill="#263941"/>
    <circle cx="1450" cy="661" r="49" fill="#aab2ad"/>
  </g>
  <path d="M800 72v756" stroke="#f2fbf7" stroke-opacity="0.62" stroke-dasharray="4 17"/>
  <circle cx="800" cy="450" r="9" fill="#f2fbf7"/>
  <g fill="#eff9f6" font-family="Arial, sans-serif" letter-spacing="5">
    <text x="92" y="92" font-size="22">LINE / SURFACE</text>
    <text x="92" y="824" font-size="17" fill-opacity="0.72">16:9 PLACEHOLDER &#8212; REPLACE BEFORE LAUNCH</text>
  </g>
</svg>
